<?xml version="1.0" encoding="UTF-8" standalone="no"?>
<!DOCTYPE svg PUBLIC "-//W3C//DTD SVG 20010904//EN" "http://www.w3.org/TR/2001/REC-SVG-20010904/DTD/svg10.dtd">
<svg version="1.0" xmlns="http://www.w3.org/2000/svg" width="718.000000pt" height="705.000000pt" viewBox="0 0 718.000000 705.000000" preserveAspectRatio="xMidYMid meet">

<g transform="translate(0.000000,705.000000) scale(0.100000,-0.100000)" fill="#000000" stroke="none">
<path d="M3795 6976 c-99 -131 -139 -240 -139 -381 0 -119 23 -207 81 -302 111 -183 289 -283 502 -283 60 0 118 6 152 16 304 91 483 382 419 687 l-11 57 -168 54 c-245 80 -456 123 -786 160 -26 3 -44 0 -50 -8z"/>
<path d="M1915 6586 c-291 -151 -586 -370 -823 -608 l-102 -104 43 -21 c87 -42 196 -66 297 -65 125 0 224 24 340 79 81 39 107 59 185 137 72 73 99 108 133 176 58 116 82 219 81 339 -2 157 9 152 -154 67z"/>
<path d="M2771 6615 c-268 -81 -457 -274 -533 -540 -28 -101 -30 -273 -4 -380 94 -390 487 -645 878 -571 288 54 502 242 598 526 34 99 39 287 11 402 -37 156 -110 279 -230 390 -85 79 -173 131 -276 165 -67 21 -103 26 -220 29 -128 4 -147 2 -224 -21z"/>
<path d="M5056 6587 c-59 -93 -79 -166 -74 -283 3 -95 6 -106 46 -187 120 -243 399 -335 642 -212 27 14 66 40 86 57 47 42 114 126 114 143 0 8 -55 58 -122 112 -195 157 -356 263 -563 374 l-94 50 -35 -54z"/>
<path d="M5930 5923 c-153 -167 -267 -394 -316 -628 -25 -120 -25 -372 -1 -497 124 -625 655 -1068 1280 -1068 l137 0 0 44 c0 61 -26 259 -51 386 -111 571 -370 1123 -733 1560 -85 103 -238 270 -248 270 -3 0 -34 -30 -68 -67z"/>
<path d="M4438 5890 c-77 -12 -229 -64 -286 -97 -342 -197 -511 -563 -433 -939 35 -168 112 -311 236 -438 109 -111 237 -185 397 -228 116 -31 317 -31 433 1 244 66 449 232 562 456 64 125 98 317 82 465 -12 123 -33 192 -88 305 -113 228 -303 384 -554 454 -86 25 -262 35 -349 21z"/>
<path d="M1675 5609 c-226 -28 -418 -193 -485 -417 -29 -96 -25 -265 8 -356 72 -197 232 -336 438 -382 246 -54 522 78 637 306 63 126 80 251 52 385 -44 206 -198 378 -394 439 -90 28 -173 36 -256 25z"/>
<path d="M567 5313 c-167 -275 -305 -600 -393 -928 -33 -126 -33 -129 24 -153 90 -39 154 -52 246 -52 386 1 677 325 635 708 -10 92 -21 127 -72 226 -65 125 -201 246 -327 291 -23 8 -44 15 -45 15 -1 0 -32 -48 -68 -107z"/>
<path d="M3200 5071 c-106 -35 -198 -126 -230 -228 -24 -78 -25 -110 -5 -186 30 -114 113 -203 223 -237 77 -24 131 -25 202 -4 254 75 332 388 141 567 -75 71 -122 90 -221 94 -47 1 -96 -1 -110 -6z"/>
<path d="M2426 4509 c-367 -90 -605 -448 -545 -819 13 -86 50 -188 91 -258 54 -93 189 -220 285 -270 139 -72 301 -103 434 -83 298 46 522 237 611 521 19 62 23 97 23 200 0 143 -15 213 -71 326 -148 301 -500 464 -828 383z"/>
<path d="M1489 4296 c-93 -33 -139 -97 -139 -194 0 -120 88 -198 215 -190 53 3 71 9 102 34 47 37 83 106 83 156 0 86 -62 169 -144 193 -59 18 -70 18 -117 1z"/>
<path d="M3924 4170 c-238 -36 -431 -208 -489 -435 -19 -75 -19 -201 0 -283 60 -255 297 -443 559 -444 104 -1 171 14 271 62 135 64 243 188 296 340 33 95 33 257 0 358 -49 150 -158 276 -296 342 -116 55 -236 77 -341 60z"/>
<path d="M640 4146 c-93 -16 -170 -59 -240 -132 -292 -304 -34 -798 387 -742 239 32 414 267 375 503 -42 254 -271 416 -522 371z"/>
<path d="M5097 4080 c-180 -32 -306 -206 -277 -385 19 -117 87 -208 195 -260 49 -24 71 -29 139 -29 67 0 91 4 137 26 79 36 133 89 171 166 29 58 33 76 33 147 0 66 -5 90 -26 136 -69 146 -218 226 -372 199z"/>
<path d="M6020 3710 c-142 -14 -286 -65 -397 -141 -71 -48 -189 -166 -235 -233 -103 -150 -143 -288 -143 -491 0 -162 15 -231 76 -363 113 -244 307 -406 574 -478 109 -29 344 -27 445 4 232 73 432 237 531 437 22 44 53 134 70 200 28 111 30 129 25 240 -7 178 -49 306 -145 448 -53 78 -158 184 -234 236 -155 105 -376 160 -567 141z"/>
<path d="M1441 3630 c-104 -22 -212 -118 -247 -222 -58 -167 22 -351 184 -426 84 -38 193 -37 279 2 167 76 245 263 181 433 -56 151 -235 246 -397 213z"/>
<path d="M4632 3114 c-73 -19 -131 -55 -189 -117 -60 -63 -91 -126 -106 -212 -31 -179 65 -359 231 -438 62 -30 75 -32 172 -32 97 0 110 2 171 31 162 77 246 215 237 393 -3 70 -10 99 -35 153 -85 181 -288 274 -481 222z"/>
<path d="M615 3101 c-87 -26 -142 -54 -214 -112 -108 -88 -191 -239 -207 -379 -5 -48 0 -73 41 -200 73 -224 91 -258 170 -324 233 -192 566 -175 781 40 321 320 174 862 -266 979 -76 20 -230 18 -305 -4z"/>
<path d="M3188 2926 c-575 -101 -990 -647 -929 -1223 43 -409 266 -734 626 -913 158 -78 277 -109 451 -117 155 -7 252 5 391 48 394 123 694 456 777 863 75 368 -44 761 -313 1026 -147 147 -306 238 -513 296 -79 22 -118 27 -253 30 -104 2 -187 -2 -237 -10z"/>
<path d="M1735 2847 c-113 -38 -191 -105 -239 -207 -28 -59 -31 -74 -31 -160 0 -82 4 -103 27 -153 38 -80 115 -158 191 -193 55 -26 73 -29 157 -29 87 0 101 3 161 32 80 39 150 111 187 191 23 49 27 70 27 152 0 86 -3 101 -31 160 -64 133 -183 211 -329 217 -48 2 -96 -2 -120 -10z"/>
<path d="M5185 2083 c-150 -23 -263 -80 -365 -183 -256 -255 -254 -647 5 -905 195 -195 467 -238 724 -115 102 49 218 159 274 261 72 129 97 321 61 463 -54 214 -231 398 -442 460 -56 16 -206 28 -257 19z"/>
<path d="M1295 1975 c-38 -9 -117 -38 -174 -66 -85 -42 -118 -65 -181 -128 -84 -83 -146 -179 -181 -282 l-23 -67 29 -38 c194 -262 517 -572 797 -767 l96 -67 39 14 c216 76 401 281 459 508 27 105 25 268 -4 371 -70 247 -249 429 -497 507 -93 29 -263 36 -360 15z"/>
<path d="M4429 926 c-74 -29 -116 -56 -162 -105 -222 -237 -70 -620 254 -639 172 -10 323 91 381 255 30 85 23 208 -17 289 -37 75 -104 142 -180 179 -50 25 -73 30 -149 32 -59 2 -103 -2 -127 -11z"/>
<path d="M2363 849 c-109 -14 -212 -91 -261 -197 -23 -48 -27 -71 -27 -143 0 -75 4 -92 30 -145 35 -68 37 -70 236 -145 l134 -51 50 17 c199 69 289 290 196 480 -66 133 -203 204 -358 184z"/>
<path d="M3357 545 c-137 -28 -276 -118 -362 -235 -38 -52 -88 -160 -99 -216 l-7 -30 108 -17 c224 -35 312 -41 573 -41 238 1 478 19 496 37 8 8 -17 99 -46 162 -78 173 -237 300 -426 340 -83 18 -147 18 -237 0z"/>
</g>
</svg>